<?xml version="1.0" standalone="no"?>
<!DOCTYPE svg PUBLIC "-//W3C//DTD SVG 20010904//EN"
 "http://www.w3.org/TR/2001/REC-SVG-20010904/DTD/svg10.dtd">
<svg version="1.0" xmlns="http://www.w3.org/2000/svg"
 width="256.000000pt" height="256.000000pt" viewBox="0 0 256.000000 256.000000"
 preserveAspectRatio="xMidYMid meet">

<g transform="translate(0.000000,256.000000) scale(0.100000,-0.100000)"
fill="#000000" stroke="none">
<path d="M766 2390 c-16 -5 -42 -22 -59 -37 -74 -70 -77 -185 -6 -258 20 -21
31 -45 35 -77 7 -47 7 -47 -32 -64 -22 -9 -60 -19 -87 -21 -54 -6 -59 -10
-155 -138 -38 -49 -79 -95 -92 -102 -42 -21 -52 -42 -33 -73 15 -26 15 -29
-10 -62 -15 -19 -43 -70 -63 -112 -28 -61 -34 -86 -29 -112 6 -33 5 -34 -27
-34 -98 0 -142 -40 -180 -164 l-21 -70 50 -46 c43 -39 153 -103 218 -125 16
-6 11 -10 -25 -21 -26 -7 -56 -24 -68 -37 -25 -27 -38 -82 -28 -121 18 -72
164 -74 415 -6 57 15 51 31 -11 28 -49 -3 -51 -2 -59 26 -5 17 -7 32 -5 34 2
1 64 -17 138 -42 74 -26 140 -46 146 -46 7 0 25 -9 41 -21 42 -31 109 -24 136
16 19 29 22 30 55 18 19 -6 59 -12 88 -12 45 -1 57 -5 77 -29 22 -25 29 -27
119 -30 166 -6 284 22 338 81 28 32 36 36 31 19 -4 -18 -2 -21 12 -15 13 4 16
3 11 -6 -4 -6 -16 -9 -25 -6 -28 9 -46 -19 -26 -39 34 -33 99 -12 120 39 9 20
15 67 15 116 0 60 3 80 13 77 8 -3 14 -41 19 -116 7 -110 7 -112 -17 -137 -41
-40 -28 -72 30 -70 67 2 115 33 115 72 0 19 5 23 31 23 39 0 34 22 -7 31 l-29
7 27 1 c24 1 26 4 19 24 -5 12 -14 21 -21 19 -6 -1 -9 2 -6 7 4 5 1 13 -5 17
-8 5 -10 42 -4 131 7 130 -1 257 -16 247 -5 -3 -9 -60 -10 -127 -1 -134 -7
-168 -29 -175 -13 -3 -13 -2 0 7 13 9 13 11 -2 11 -24 0 -23 -31 2 -63 29 -37
29 -148 -1 -178 -16 -16 -23 -18 -35 -8 -11 9 -14 48 -14 193 0 192 -6 225
-57 306 -11 19 -26 55 -33 79 -13 48 -26 45 -33 -9 -2 -23 -4 -15 -5 25 -2 52
-6 65 -33 95 -20 22 -33 30 -36 23 -11 -29 -24 -11 -18 25 19 112 82 325 106
357 4 6 -12 44 -37 85 -24 41 -44 78 -44 83 0 4 16 -4 35 -19 26 -20 41 -25
61 -20 18 5 30 3 35 -6 6 -10 11 -10 20 -1 10 10 10 18 1 38 -12 27 -46 36
-36 10 5 -11 -1 -15 -24 -15 -23 0 -37 8 -56 33 -40 53 -68 126 -74 193 -5 67
-3 70 58 91 30 11 36 10 44 -5 30 -53 103 -93 202 -108 35 -5 41 -9 36 -26 -3
-13 5 -29 26 -48 28 -26 30 -29 15 -42 -9 -7 -14 -8 -10 -2 4 7 0 18 -9 25
-14 11 -18 10 -30 -6 -8 -10 -14 -24 -14 -31 0 -6 -7 -17 -15 -24 -8 -7 -15
-17 -15 -23 0 -6 7 -2 15 9 8 10 15 13 15 7 0 -7 -9 -18 -20 -25 -12 -8 -20
-24 -20 -41 0 -15 -4 -26 -9 -22 -5 3 -12 1 -16 -5 -9 -15 -38 -13 -29 3 4 6
-5 1 -19 -12 -32 -29 -36 -42 -5 -15 l22 19 -20 -27 c-10 -14 -21 -24 -23 -22
-2 2 -10 -1 -18 -7 -17 -15 -18 -43 0 -33 7 5 6 0 -3 -11 -12 -15 -12 -17 -1
-10 11 6 13 4 8 -9 -4 -9 -3 -15 2 -12 5 3 12 -1 15 -10 4 -10 2 -13 -7 -9 -6
4 -5 1 4 -7 9 -7 14 -19 11 -27 -2 -8 -1 -11 4 -8 5 3 9 -8 10 -24 1 -17 -3
-26 -9 -22 -6 3 -7 1 -3 -5 4 -6 14 -8 23 -5 9 4 14 2 11 -3 -6 -12 28 -44 38
-36 4 4 2 -2 -3 -12 -6 -12 -7 -31 -3 -48 7 -23 4 -33 -21 -58 -18 -18 -23
-27 -13 -23 12 4 15 3 10 -5 -4 -7 -13 -12 -20 -12 -18 0 -15 -102 3 -124 15
-18 47 -21 56 -6 3 6 12 10 18 10 7 0 6 -4 -3 -11 -12 -8 -11 -9 5 -6 24 4 78
-20 70 -33 -11 -18 60 -95 103 -110 23 -9 49 -26 58 -39 9 -12 26 -26 38 -31
16 -7 9 -9 -29 -9 -30 -1 -62 -8 -80 -20 -31 -18 -31 -18 -33 3 -1 17 1 18 8
6 13 -20 13 1 0 34 -6 16 -17 26 -30 26 -27 0 -27 -48 0 -83 18 -23 19 -27 5
-61 -25 -59 -19 -124 15 -176 l30 -45 -25 -13 c-28 -14 -43 -57 -28 -81 24
-39 282 -35 362 5 l28 14 8 138 c3 75 4 149 0 164 -4 17 1 48 17 90 20 55 23
81 23 209 l0 145 -42 85 c-23 46 -53 95 -67 108 -25 23 -26 24 -26 4 0 -11 7
-42 16 -69 18 -54 33 -394 18 -394 -20 1 -136 185 -194 305 -61 130 -67 153
-54 232 4 29 0 61 -14 105 -34 107 -35 122 -3 152 15 14 32 26 39 26 20 0 34
42 29 86 -6 53 -31 94 -57 94 -10 0 -22 9 -25 20 -8 27 -43 26 -72 -2 l-23
-22 -73 23 c-102 33 -153 65 -177 111 -15 30 -27 40 -44 40 -50 0 -80 -50 -90
-155 -1 -11 -6 -37 -10 -58 -8 -34 1 -91 20 -142 7 -16 2 -17 -57 -11 -35 3
-89 8 -119 10 -33 2 -98 20 -165 46 -108 41 -112 42 -195 35 -88 -7 -122 -17
-101 -29 6 -4 11 -27 11 -51 0 -35 -6 -52 -28 -76 -24 -27 -37 -33 -85 -37
-34 -3 -69 1 -87 8 -28 12 -80 63 -80 78 0 12 51 31 65 25 23 -8 28 41 10 96
-12 37 -14 55 -6 70 16 29 14 34 -13 27 -14 -3 -27 -2 -30 3 -9 14 5 41 21 41
8 0 13 6 11 13 -6 15 -48 22 -48 8 0 -6 -4 -11 -10 -11 -15 0 -12 44 6 90 21
53 69 82 136 83 46 1 54 -2 80 -33 l28 -34 0 26 c0 44 -39 79 -90 84 -25 2
-58 -1 -74 -6z m1279 -268 c0 -8 -15 -20 -32 -27 -37 -16 -41 -10 -17 23 17
24 49 26 49 4z m53 -44 c7 -7 12 -28 12 -48 0 -28 -8 -43 -36 -71 l-37 -34 6
37 c4 24 1 38 -6 41 -7 2 -2 9 11 16 33 17 28 35 -8 28 -35 -8 -39 6 -8 27 27
19 50 20 66 4z m-826 -152 c42 -14 85 -26 97 -26 29 0 31 -9 19 -88 l-10 -72
-89 0 -89 0 -27 -55 c-24 -49 -29 -54 -40 -39 -12 16 -13 16 -19 -1 -9 -23 13
-193 32 -248 10 -28 26 -50 50 -65 32 -21 35 -27 30 -55 -3 -17 -7 -31 -9 -32
-1 -1 -25 -18 -53 -38 -88 -63 -182 -71 -324 -27 -36 11 -79 20 -97 20 -23 0
-33 6 -38 21 -4 11 -29 36 -56 56 -43 30 -48 38 -43 61 8 33 24 53 24 29 0
-18 15 -23 25 -8 4 8 -79 248 -91 260 -2 2 -9 -10 -15 -27 -6 -18 -16 -32 -23
-32 -6 0 -30 19 -52 43 -72 76 -71 72 -26 116 22 21 58 66 81 99 71 105 103
115 147 46 40 -63 85 -89 155 -89 97 0 154 59 146 151 l-5 51 71 9 c65 8 76 7
112 -12 22 -12 75 -34 117 -48z m728 -38 c-4 -49 -5 -50 -8 -14 -3 34 2 66 10
66 2 0 1 -24 -2 -52z m-437 2 c40 0 43 -3 70 -50 15 -28 27 -52 27 -54 0 -2
-27 -6 -60 -9 -33 -4 -72 -10 -86 -13 l-25 -6 3 71 c1 56 5 70 16 66 7 -3 32
-5 55 -5z m364 -37 c-3 -10 -5 -2 -5 17 0 19 2 27 5 18 2 -10 2 -26 0 -35z
m-467 -37 c0 -91 -5 -106 -36 -106 -28 0 -28 0 -12 103 9 64 15 77 30 77 16 0
18 -9 18 -74z m570 -51 c0 -5 -5 -3 -10 5 -5 8 -10 20 -10 25 0 6 5 3 10 -5 5
-8 10 -19 10 -25z m-127 5 c-3 -12 -8 -19 -11 -16 -5 6 5 36 12 36 2 0 2 -9
-1 -20z m-210 -16 c3 -4 -8 -34 -25 -68 -46 -91 -67 -159 -79 -258 -13 -113
-8 -142 26 -134 14 4 25 3 25 -2 0 -4 9 -18 20 -30 15 -16 17 -22 6 -22 -7 0
-17 7 -20 16 -10 27 -26 5 -20 -29 l6 -32 -20 30 c-49 76 -111 101 -283 114
-54 4 -105 13 -113 20 -16 14 -38 76 -57 162 -11 55 -11 58 22 120 l34 63 77
1 c64 0 77 -3 75 -15 -1 -12 8 -15 41 -14 34 1 48 7 65 27 19 22 35 28 107 37
47 7 87 14 89 16 6 6 17 5 24 -2z m344 -36 c-3 -8 -6 -5 -6 6 -1 11 2 17 5 13
3 -3 4 -12 1 -19z m-90 -35 c-3 -10 -5 -4 -5 12 0 17 2 24 5 18 2 -7 2 -21 0
-30z m90 -20 c-3 -10 -5 -4 -5 12 0 17 2 24 5 18 2 -7 2 -21 0 -30z m-1584
-68 c67 -66 75 -79 58 -89 -12 -8 -163 133 -155 145 11 19 32 7 97 -56z m1461
19 c3 -8 2 -12 -4 -9 -6 3 -10 10 -10 16 0 14 7 11 14 -7z m91 6 c-3 -5 -12
-10 -18 -10 -7 0 -6 4 3 10 19 12 23 12 15 0z m-1583 -85 c28 -25 54 -45 59
-45 5 0 -4 -19 -21 -42 -22 -29 -27 -45 -20 -52 6 -6 55 -40 108 -76 69 -46
106 -78 127 -112 16 -25 42 -54 57 -64 27 -18 28 -40 2 -30 -10 4 -14 -4 -14
-29 0 -34 -14 -47 -23 -22 -3 7 -9 2 -15 -13 l-11 -25 0 27 c-1 40 -19 43 -35
6 l-14 -33 -1 35 c-1 19 3 51 9 69 12 42 9 46 -78 103 -74 49 -133 68 -214 68
-30 0 -59 5 -66 12 -25 25 -13 78 41 173 28 52 54 94 56 95 1 0 26 -20 53 -45z
m1568 9 c0 -2 -9 0 -20 6 -11 6 -20 13 -20 16 0 2 9 0 20 -6 11 -6 20 -13 20
-16z m-1404 -62 c18 -51 19 -62 7 -101 -7 -24 -14 -46 -16 -48 -7 -7 -117 61
-117 72 1 15 42 61 61 68 9 3 19 19 22 36 4 17 10 31 14 31 5 0 17 -26 29 -58z
m1484 13 c0 -5 -5 -3 -10 5 -5 8 -10 20 -10 25 0 6 5 3 10 -5 5 -8 10 -19 10
-25z m49 -110 c0 -5 -6 1 -14 15 -8 14 -14 30 -14 35 0 6 6 -1 14 -15 8 -14
14 -29 14 -35z m280 -60 c12 -86 7 -189 -15 -270 -7 -27 -13 -42 -13 -33 -1 9
-4 24 -8 34 -4 11 -3 15 5 10 8 -4 10 46 7 181 -3 192 5 218 24 78z m-1012
-41 c59 -14 125 -36 145 -50 38 -24 78 -87 78 -121 0 -37 -50 -92 -127 -138
-95 -58 -312 -137 -336 -123 -10 5 -36 12 -60 16 -36 6 -42 11 -45 35 -4 29
-31 50 -60 45 -23 -3 -155 53 -145 63 4 4 33 12 63 18 55 11 160 43 362 108
96 31 140 55 126 69 -3 3 -58 -11 -123 -31 -65 -19 -119 -34 -122 -32 -2 2 24
25 57 51 53 41 60 52 60 82 0 19 4 34 9 34 5 0 58 -12 118 -26z m837 -76 l19
-33 -22 22 c-11 12 -21 25 -21 29 0 3 -9 20 -21 37 l-21 32 24 -27 c13 -15 32
-42 42 -60z m-1688 0 c67 -47 75 -56 70 -78 -18 -75 -18 -126 -2 -139 9 -8 19
-11 22 -8 4 3 15 -4 24 -16 l18 -22 11 27 c7 20 15 26 27 21 9 -3 19 -1 23 5
5 8 34 -2 92 -31 46 -24 94 -46 107 -49 21 -6 20 -10 -40 -97 -56 -81 -66 -90
-88 -84 -59 13 -311 118 -584 241 -87 39 -176 99 -176 118 0 9 14 43 31 75 28
53 37 61 78 73 29 9 94 15 179 15 l134 1 74 -52z m444 -91 l85 -1 -105 -32
c-112 -34 -210 -55 -222 -47 -5 2 -8 15 -8 29 0 19 5 24 24 24 13 0 29 7 36
15 10 12 6 18 -24 36 -60 35 -41 38 47 6 66 -24 99 -30 167 -30z m680 -137
c-1 -52 -3 -96 -4 -98 -2 -1 -16 2 -32 8 -27 11 -117 8 -199 -6 -23 -4 -15 3
33 30 35 19 78 46 96 60 39 29 85 115 87 160 3 75 20 -64 19 -154z m49 140 c0
-10 -3 -8 -9 5 -12 27 -12 43 0 25 5 -8 9 -22 9 -30z m325 24 c3 -8 2 -12 -4
-9 -6 3 -10 10 -10 16 0 14 7 11 14 -7z m-284 -49 c0 -5 -5 -3 -10 5 -5 8 -10
20 -10 25 0 6 5 3 10 -5 5 -8 10 -19 10 -25z m617 -7 c-3 -7 -5 -2 -5 12 0 14
2 19 5 13 2 -7 2 -19 0 -25z m-643 -4 c3 -8 2 -12 -4 -9 -6 3 -10 10 -10 16 0
14 7 11 14 -7z m580 0 c3 -8 2 -12 -4 -9 -6 3 -10 10 -10 16 0 14 7 11 14 -7z
m-536 -29 c-3 -3 -9 2 -12 12 -6 14 -5 15 5 6 7 -7 10 -15 7 -18z m9 -37 c-3
-8 -6 -5 -6 6 -1 11 2 17 5 13 3 -3 4 -12 1 -19z m465 -2 c9 0 14 -4 12 -8 -5
-8 31 -29 45 -26 5 2 9 0 10 -4 4 -28 -1 -38 -18 -38 -22 0 -51 -54 -51 -97 0
-35 32 -89 59 -98 22 -7 64 -72 56 -86 -8 -11 -85 -12 -85 0 0 14 -89 43 -114
37 -17 -4 -30 3 -53 27 -79 82 -98 138 -68 197 24 46 66 63 147 58 37 -2 68 0
68 4 0 4 -3 8 -7 8 -5 0 -19 10 -33 21 -20 17 -21 19 -5 13 11 -4 28 -7 37 -8z
m53 -6 c-3 -5 -12 -10 -18 -10 -7 0 -6 4 3 10 19 12 23 12 15 0z m54 -79 c1
-48 -5 -35 -12 24 -4 32 -3 43 3 30 5 -11 9 -35 9 -54z m-600 -71 c-1 -85 -18
-143 -44 -148 -12 -3 -15 0 -9 10 5 7 7 72 6 143 l-3 130 25 -30 c22 -26 25
-39 25 -105z m32 113 c13 -16 12 -17 -3 -4 -17 13 -22 21 -14 21 2 0 10 -8 17
-17z m-771 -85 c0 -24 -79 -175 -94 -181 -21 -8 -66 2 -66 14 0 5 30 52 66
104 54 78 69 94 80 84 8 -6 14 -16 14 -21z m1352 -44 c2 -19 0 -37 -4 -40 -4
-3 -8 13 -8 35 0 51 6 53 12 5z m-1978 10 c9 -3 18 -25 22 -52 4 -26 10 -54
15 -64 6 -11 4 -18 -7 -22 -17 -7 -29 19 -39 88 -5 34 -11 44 -18 37 -8 -8 -8
-27 1 -68 6 -31 10 -59 7 -61 -10 -11 -126 -3 -140 8 -18 15 -19 50 -3 85 16
36 117 66 162 49z m1247 -13 l24 -19 -19 -36 c-19 -36 -51 -56 -121 -75 -62
-17 -65 -15 -65 32 0 52 -9 87 -22 87 -7 0 -8 -25 -4 -70 l7 -70 -53 0 -54 0
-12 58 c-17 81 -16 82 22 82 32 0 34 -1 40 -48 3 -27 12 -57 20 -67 22 -31 28
0 12 62 -8 31 -14 58 -13 59 3 2 157 21 188 23 15 0 37 -8 50 -18z m-536 -15
c46 -12 50 -16 53 -46 l3 -32 -78 7 c-43 4 -79 8 -81 10 -8 7 28 75 40 75 7
-1 36 -7 63 -14z m-638 -8 c15 -19 23 -87 12 -94 -15 -9 -19 -2 -34 55 -11 41
-11 51 0 51 7 0 17 -6 22 -12z m817 -16 c-3 -16 1 -45 10 -66 22 -53 21 -56
-23 -56 -50 0 -81 35 -81 91 0 43 17 58 67 59 30 0 32 -2 27 -28z m1004 -27
c-3 -3 -9 2 -12 12 -6 14 -5 15 5 6 7 -7 10 -15 7 -18z m-2088 -17 c0 -23 -3
-29 -9 -19 -8 12 -4 51 5 51 2 0 4 -15 4 -32z m2170 -3 c0 -14 -4 -25 -9 -25
-4 0 -6 11 -3 25 2 14 6 25 8 25 2 0 4 -11 4 -25z m-3 -57 c-3 -8 -6 -5 -6 6
-1 11 2 17 5 13 3 -3 4 -12 1 -19z m-229 -18 c14 0 17 -36 3 -44 -16 -10 -101
6 -101 19 0 16 41 35 65 30 11 -3 26 -5 33 -5z m127 -20 c3 -5 1 -10 -4 -10
-6 0 -11 5 -11 10 0 6 2 10 4 10 3 0 8 -4 11 -10z m-62 -17 c-7 -2 -21 -2 -30
0 -10 3 -4 5 12 5 17 0 24 -2 18 -5z"/>
<path d="M2092 928 c-13 -17 -28 -93 -16 -85 5 3 18 -7 28 -22 l20 -26 -23 19
c-18 16 -21 17 -16 3 10 -26 46 -33 62 -11 20 28 16 91 -7 114 -23 23 -34 25
-48 8z m57 -47 c-2 -6 -10 2 -17 17 -11 25 -11 25 4 10 9 -9 15 -21 13 -27z"/>
<path d="M1320 804 c0 -29 22 -104 31 -104 12 0 11 62 -1 94 -10 29 -30 35
-30 10z"/>
<path d="M914 2238 c-4 -15 -1 -25 10 -34 11 -8 13 -14 6 -19 -14 -9 -2 -26
17 -23 10 2 20 -10 29 -34 12 -35 11 -39 -9 -53 -12 -8 -27 -15 -33 -15 -26 0
-46 -39 -40 -75 9 -44 26 -46 26 -2 0 29 5 35 39 51 49 21 56 41 36 97 -8 24
-15 51 -15 59 -1 14 -43 70 -54 70 -2 0 -8 -10 -12 -22z"/>
<path d="M870 2233 c0 -10 4 -24 9 -32 13 -21 24 5 11 29 -13 25 -20 26 -20 3z"/>
<path d="M910 2103 c0 -9 8 -13 22 -11 31 4 34 26 3 26 -15 0 -25 -6 -25 -15z"/>
<path d="M1822 2078 c-18 -18 -15 -77 4 -85 17 -6 64 33 64 54 0 17 -11 16
-38 -2 -21 -16 -22 -15 -16 15 7 33 4 36 -14 18z"/>
<path d="M1700 1641 c0 -17 12 -41 21 -41 5 0 9 11 9 25 0 16 -6 25 -15 25 -8
0 -15 -4 -15 -9z"/>
<path d="M1680 1539 c0 -5 -4 -8 -9 -5 -10 7 -21 -27 -21 -64 0 -19 6 -26 20
-27 11 -1 20 4 20 10 0 8 3 7 9 -2 6 -9 18 -12 32 -8 13 3 29 1 37 -6 11 -9
17 -7 28 8 16 22 18 51 4 60 -5 3 -10 -1 -10 -9 0 -26 -20 -28 -40 -4 -11 13
-19 28 -20 35 0 23 -20 24 -30 1 -11 -23 -11 -23 -6 0 2 12 0 22 -5 22 -5 0
-9 -5 -9 -11z m7 -61 c-3 -8 -6 -5 -6 6 -1 11 2 17 5 13 3 -3 4 -12 1 -19z"/>
<path d="M1702 1424 c11 -11 21 -14 26 -9 4 6 6 9 3 8 -2 -1 -13 3 -25 9 -20
10 -20 10 -4 -8z"/>
<path d="M1910 1246 c0 -3 9 -10 20 -16 11 -6 20 -8 20 -6 0 3 -9 10 -20 16
-11 6 -20 8 -20 6z"/>
<path d="M1836 1203 c-3 -3 -6 -16 -5 -27 1 -19 2 -18 10 4 8 23 8 22 5 -7 -1
-18 1 -33 6 -33 11 0 10 57 -1 64 -4 3 -11 3 -15 -1z"/>
</g>
</svg>
